<svg width="22" height="22" viewBox="0 0 22 22" fill="none" xmlns="http://www.w3.org/2000/svg">
<path d="M11.0001 21C13.3136 20.9999 15.5556 20.1977 17.344 18.73C19.1324 17.2623 20.3565 15.2199 20.8079 12.9508C21.2592 10.6817 20.9098 8.32632 19.8192 6.28596C18.7285 4.2456 16.9642 2.64652 14.8268 1.76118C12.6893 0.875837 10.311 0.759016 8.09709 1.43062C5.88317 2.10222 3.9706 3.5207 2.68528 5.44435C1.39995 7.368 0.821392 9.67781 1.04817 11.9802C1.27496 14.2826 2.29305 16.4352 3.92899 18.0711" stroke="#005148" stroke-width="2" stroke-linecap="round"/>
<path d="M15.4436 8.77734L11.4458 13.5751C10.718 14.4484 10.3536 14.8862 9.86357 14.9084C9.37357 14.9307 8.97135 14.5273 8.16691 13.7229L6.55469 12.1107" stroke="#005148" stroke-width="2" stroke-linecap="round"/>
</svg>
